# xmcd
#
# Track frame offsets:
#	150
#	15867
#	31437
#	49362
#	67952
#	85250
#	103509
#	118641
#	133710
#	149981
#	162918
#	179499
#	195533
#	214280
#
# Disc length: 3090 seconds
#
# Revision: 0
# Processed by: cddbd v1.5.2PL0 Copyright (c) Steve Scherf et al.
# Submitted via: dBpowerAMP V4.0
#
DISCID=cc0c100e
DTITLE=Mariah Carey - The Emancipation of Mimi
DYEAR=2005
DGENRE=R&B
TTITLE0=01 It's Like That
TTITLE1=02 We Belong Together
TTITLE2=03 Shake It Off
TTITLE3=04 Mine Again
TTITLE4=05 Say Something
TTITLE5=06 Stay The Night
TTITLE6=07 Get Your Number
TTITLE7=08 One and Only
TTITLE8=09 Circles
TTITLE9=10 Your Girl
TTITLE10=11 I Wish You Knew
TTITLE11=12 To The Floor
TTITLE12=13 Joy Ride
TTITLE13=14 Fly Like A Bird
EXTD=
EXTT0=
EXTT1=
EXTT2=
EXTT3=
EXTT4=
EXTT5=
EXTT6=
EXTT7=
EXTT8=
EXTT9=
EXTT10=
EXTT11=
EXTT12=
EXTT13=
PLAYORDER=
